<?xml version="1.0" standalone="no"?>
<!DOCTYPE svg PUBLIC "-//W3C//DTD SVG 20010904//EN"
 "http://www.w3.org/TR/2001/REC-SVG-20010904/DTD/svg10.dtd">
<svg version="1.0" xmlns="http://www.w3.org/2000/svg"
 width="300.000000pt" height="125.000000pt" viewBox="0 0 300.000000 125.000000"
 preserveAspectRatio="xMidYMid meet">
<metadata>
Created by potrace 1.10, written by Peter Selinger 2001-2011
</metadata>
<g transform="translate(0.000000,125.000000) scale(0.100000,-0.100000)"
fill="#000000" stroke="none">
<path d="M788 1023 c-21 -5 -24 -23 -4 -23 24 0 103 -68 134 -117 17 -26 83
-99 147 -161 64 -62 122 -126 128 -141 24 -56 58 -91 90 -91 23 0 42 13 90 63
33 34 77 86 99 114 21 29 65 74 97 100 33 27 67 63 76 81 9 17 20 32 24 32 11
0 34 -27 46 -56 15 -35 225 -244 245 -244 32 0 67 39 109 121 22 45 41 86 41
91 0 6 15 36 33 67 17 30 37 69 43 86 18 50 44 39 84 -36 19 -36 47 -81 61
-100 15 -18 34 -50 43 -69 9 -19 38 -64 66 -100 27 -36 49 -68 50 -73 0 -4 12
-26 26 -48 22 -35 27 -39 41 -27 9 7 29 41 44 76 16 34 42 83 59 108 44 63
203 228 272 281 32 24 58 49 58 54 0 18 -114 -77 -219 -182 -108 -108 -168
-187 -202 -266 l-20 -47 -32 51 c-18 29 -54 82 -81 119 -26 38 -51 75 -54 84
-3 8 -18 31 -33 50 -15 19 -42 68 -60 108 -33 72 -57 93 -92 79 -15 -5 -107
-184 -107 -205 0 -18 -68 -141 -93 -169 -11 -13 -28 -23 -37 -23 -23 0 -230
213 -230 237 0 24 -40 63 -64 63 -10 0 -23 -14 -31 -34 -8 -19 -34 -50 -57
-68 -64 -51 -109 -98 -152 -158 -21 -30 -63 -75 -92 -99 -54 -43 -55 -43 -75
-25 -12 11 -30 37 -41 58 -11 21 -72 89 -135 150 -63 60 -129 131 -146 156
-35 50 -116 141 -126 139 -3 -1 -14 -3 -23 -6z"/>
<path d="M1795 430 c-49 -4 -146 -13 -215 -21 -77 -8 -257 -13 -470 -13 -193
-1 -346 -5 -348 -10 -1 -5 110 -11 251 -13 246 -5 498 9 722 38 49 7 308 10
673 10 392 -1 592 3 592 9 0 12 -1054 11 -1205 0z"/>
</g>
</svg>
